<svg width="36" height="36" viewBox="0 0 36 36" fill="none" xmlns="http://www.w3.org/2000/svg">
<g id="Group 170">
<rect id="Rectangle 422" width="36" height="36" rx="8" fill="#38B865" fill-opacity="0.05"/>
<g id="Frame">
<path id="Vector" d="M25.6711 12.7797L18.1711 10.0297C18.0597 9.98879 17.9375 9.98879 17.8261 10.0297L10.3261 12.7797C10.2299 12.8151 10.1469 12.8791 10.0884 12.9632C10.0298 13.0472 9.99845 13.1473 9.9986 13.2497V22.2497C9.99847 22.3476 10.0271 22.4433 10.0808 22.5251C10.1346 22.6069 10.2112 22.6711 10.3011 22.7097L17.8311 25.9597C17.8938 25.9869 17.9615 26.0009 18.0298 26.0009C18.0982 26.0009 18.1659 25.9869 18.2286 25.9597L25.6986 22.7097C25.788 22.6707 25.8641 22.6063 25.9174 22.5246C25.9707 22.4429 25.9989 22.3473 25.9986 22.2497V18.4997C25.9986 18.3671 25.9459 18.2399 25.8521 18.1462C25.7584 18.0524 25.6312 17.9997 25.4986 17.9997C25.366 17.9997 25.2388 18.0524 25.145 18.1462C25.0513 18.2399 24.9986 18.3671 24.9986 18.4997V21.9222L18.0286 24.9547L10.9986 21.9197V13.5997L17.9986 11.0322L24.9986 13.5997V15.5322C24.9986 15.6648 25.0513 15.792 25.145 15.8858C25.2388 15.9795 25.366 16.0322 25.4986 16.0322C25.6312 16.0322 25.7584 15.9795 25.8521 15.8858C25.9459 15.792 25.9986 15.6648 25.9986 15.5322V13.2497C25.9987 13.1473 25.9674 13.0472 25.9088 12.9632C25.8502 12.8791 25.7673 12.8151 25.6711 12.7797Z" fill="#38B865" stroke="#38B865" stroke-width="0.2"/>
<path id="Vector_2" d="M17.9986 21.9997C18.0642 21.9997 18.1292 21.9868 18.1899 21.9617C18.2506 21.9366 18.3057 21.8997 18.3521 21.8533C18.3985 21.8069 18.4354 21.7517 18.4605 21.6911C18.4856 21.6304 18.4986 21.5654 18.4986 21.4997V16.2497C18.4987 16.1473 18.4674 16.0473 18.4088 15.9632C18.3502 15.8791 18.2672 15.8151 18.1711 15.7797L13.4211 14.0297C13.2984 13.9908 13.1655 14.0007 13.0499 14.0573C12.9344 14.1139 12.8451 14.2129 12.8007 14.3337C12.7562 14.4544 12.76 14.5877 12.8113 14.7057C12.8626 14.8237 12.9574 14.9174 13.0761 14.9672L17.4986 16.5972V21.4997C17.4986 21.5654 17.5115 21.6304 17.5366 21.6911C17.5617 21.7517 17.5986 21.8069 17.645 21.8533C17.6914 21.8997 17.7465 21.9366 17.8072 21.9617C17.8679 21.9868 17.9329 21.9997 17.9986 21.9997Z" fill="#38B865" stroke="#38B865" stroke-width="0.2"/>
</g>
</g>
</svg>
