<svg width="36" height="36" viewBox="0 0 36 36" fill="none" xmlns="http://www.w3.org/2000/svg">
<g id="Group 170">
<rect id="Rectangle 422" width="36" height="36" rx="8" fill="#38B865" fill-opacity="0.05"/>
<g id="Frame">
<path id="Vector" d="M11.6 23.6005V11.6116C11.6 11.0816 11.8107 10.5734 12.1858 10.1987C12.5608 9.82392 13.0695 9.6134 13.6 9.6134H23.6C23.8121 9.6134 24.0156 9.69761 24.1657 9.8475C24.3157 9.99739 24.4 10.2007 24.4 10.4127V24.7994C24.4 25.0114 24.3157 25.2147 24.1657 25.3646C24.0156 25.5145 23.8121 25.5987 23.6 25.5987H13.6C13.0695 25.5987 12.5608 25.3882 12.1858 25.0135C11.8107 24.6387 11.6 24.1305 11.6 23.6005ZM11.6 23.6005C11.6 23.0706 11.8107 22.5624 12.1858 22.1876C12.5608 21.8129 13.0695 21.6024 13.6 21.6024H24.4" stroke="#38B865" stroke-width="1.2" stroke-linecap="round" stroke-linejoin="round"/>
<path id="Vector_2" d="M15.6 15.6079L17.2 17.2065L20.4 14.0094" stroke="#38B865" stroke-width="1.2" stroke-linecap="round" stroke-linejoin="round"/>
</g>
</g>
</svg>
