<svg width="36" height="36" viewBox="0 0 36 36" fill="none" xmlns="http://www.w3.org/2000/svg">
<g id="Group 170">
<rect id="Rectangle 422" width="36" height="36" rx="8" fill="#5D70D7" fill-opacity="0.05"/>
<g id="Group 165">
<g id="Frame">
<path id="Vector" d="M20.4 9.9707H13.2C12.7756 9.9707 12.3687 10.1381 12.0686 10.436C11.7685 10.734 11.6 11.1381 11.6 11.5595V24.2695C11.6 24.6908 11.7685 25.0949 12.0686 25.3929C12.3687 25.6908 12.7756 25.8582 13.2 25.8582H22.8C23.2243 25.8582 23.6313 25.6908 23.9313 25.3929C24.2314 25.0949 24.4 24.6908 24.4 24.2695V13.9426L20.4 9.9707Z" stroke="#5D70D7" stroke-width="1.2" stroke-linecap="round" stroke-linejoin="round"/>
<path id="Vector_2" d="M19.6 9.9707V13.1482C19.6 13.5696 19.7685 13.9737 20.0686 14.2716C20.3687 14.5696 20.7756 14.737 21.2 14.737H24.4" stroke="#5D70D7" stroke-width="1.2" stroke-linecap="round" stroke-linejoin="round"/>
<path id="Vector_3" d="M17.6 21.8863C18.7045 21.8863 19.6 20.9972 19.6 19.9004C19.6 18.8036 18.7045 17.9144 17.6 17.9144C16.4954 17.9144 15.6 18.8036 15.6 19.9004C15.6 20.9972 16.4954 21.8863 17.6 21.8863Z" stroke="#5D70D7" stroke-width="1.2" stroke-linecap="round" stroke-linejoin="round"/>
<path id="Vector_4" d="M19.04 21.3303L20.4 22.6808" stroke="#5D70D7" stroke-width="1.2" stroke-linecap="round" stroke-linejoin="round"/>
</g>
</g>
</g>
</svg>
