<svg width="36" height="36" viewBox="0 0 36 36" fill="none" xmlns="http://www.w3.org/2000/svg">
<g id="Group 170">
<rect id="Rectangle 422" width="36" height="36" rx="8" fill="#38B865" fill-opacity="0.05"/>
<g id="Avatar (&#229;&#164;&#180;&#229;&#131;&#143;)">
<path id="Vector" d="M10.0016 25.6762C10.0016 25.855 10.1508 25.9999 10.3348 25.9999L25.6641 26C25.8482 26 25.9974 25.8551 25.9974 25.6763V25.2897C26.005 25.1732 26.0206 24.5918 25.6374 23.949C25.3957 23.5437 25.045 23.1935 24.5949 22.9083C24.0503 22.5633 23.3577 22.3133 22.5199 22.1627C22.5137 22.1619 21.8925 22.0796 21.256 21.917C20.1478 21.634 20.0509 21.3834 20.0503 21.381C20.0437 21.3562 20.0343 21.3325 20.0222 21.3101C20.0132 21.2634 19.9908 21.0875 20.0336 20.6162C20.1423 19.4194 20.7843 18.712 21.3002 18.1437C21.4629 17.9644 21.6165 17.7951 21.7349 17.6291C22.2453 16.9129 22.2927 16.0985 22.2949 16.048C22.2949 15.9457 22.2831 15.8616 22.258 15.7837C22.2079 15.6277 22.1136 15.5306 22.0448 15.4596L22.0443 15.4591C22.0269 15.4413 22.0106 15.4243 21.9972 15.4088C21.9921 15.4029 21.9785 15.3872 21.9909 15.3065C22.0362 15.0097 22.0634 14.7612 22.0764 14.5245C22.0997 14.1026 22.1178 13.4718 22.009 12.8579C21.9956 12.7531 21.9725 12.6423 21.9366 12.5104C21.8216 12.0876 21.637 11.7262 21.3804 11.4279C21.3362 11.3799 20.2634 10.2496 17.149 10.0177C16.7183 9.98562 16.2926 10.0029 15.8735 10.0243C15.7725 10.0293 15.6342 10.0362 15.5048 10.0697C15.1832 10.153 15.0974 10.3568 15.0749 10.4709C15.0375 10.6598 15.1032 10.8068 15.1466 10.9041C15.1529 10.9182 15.1607 10.9356 15.1471 10.981C15.0748 11.093 14.9611 11.1939 14.8451 11.2896C14.8116 11.3181 14.0306 11.9914 13.9877 12.8711C13.8719 13.5401 13.8806 14.5825 14.0176 15.3029C14.0255 15.3427 14.0373 15.4016 14.0182 15.4414C13.8709 15.5733 13.704 15.7229 13.7045 16.0642C13.7062 16.0985 13.7536 16.9129 14.2641 17.6291C14.3823 17.795 14.5358 17.9642 14.6984 18.1433L14.6988 18.1437C15.2146 18.712 15.8566 19.4194 15.9654 20.6162C16.0082 21.0874 15.9858 21.2634 15.9767 21.3101C15.9646 21.3324 15.9552 21.3562 15.9487 21.381C15.948 21.3834 15.8515 21.6331 14.7483 21.9156C14.1118 22.0786 13.4853 22.1619 13.4666 22.1646C12.6524 22.302 11.9639 22.5458 11.4204 22.889C10.9718 23.1724 10.6204 23.5231 10.376 23.9317C9.98534 24.5844 9.9959 25.1788 10.0016 25.2873V25.6762Z" stroke="#38B865" stroke-width="1.3" stroke-linejoin="round"/>
</g>
</g>
</svg>
