<svg width="36" height="36" viewBox="0 0 36 36" fill="none" xmlns="http://www.w3.org/2000/svg">
<g id="Group 170">
<rect id="Rectangle 422" width="36" height="36" rx="8" fill="#EE6FDB" fill-opacity="0.05"/>
<g id="Frame">
<path id="Vector" d="M20.4 10H13.2C12.7756 10 12.3687 10.1686 12.0686 10.4686C11.7685 10.7687 11.6 11.1757 11.6 11.6V24.4C11.6 24.8243 11.7685 25.2313 12.0686 25.5314C12.3687 25.8314 12.7756 26 13.2 26H22.8C23.2243 26 23.6313 25.8314 23.9313 25.5314C24.2314 25.2313 24.4 24.8243 24.4 24.4V14L20.4 10Z" stroke="#EE6FDB" stroke-width="1.2" stroke-linecap="round" stroke-linejoin="round"/>
<path id="Vector_2" d="M19.6 10V13.2C19.6 13.6243 19.7685 14.0313 20.0686 14.3314C20.3687 14.6314 20.7756 14.8 21.2 14.8H24.4" stroke="#EE6FDB" stroke-width="1.2" stroke-linecap="round" stroke-linejoin="round"/>
<path id="Vector_3" d="M15.6 18.8V18H20.4V18.8" stroke="#EE6FDB" stroke-width="1.2" stroke-linecap="round" stroke-linejoin="round"/>
<path id="Vector_4" d="M18 18V22.8" stroke="#EE6FDB" stroke-width="1.2" stroke-linecap="round" stroke-linejoin="round"/>
<path id="Vector_5" d="M17.2 22.8H18.8" stroke="#EE6FDB" stroke-width="1.2" stroke-linecap="round" stroke-linejoin="round"/>
</g>
</g>
</svg>
