<svg width="36" height="36" viewBox="0 0 36 36" fill="none" xmlns="http://www.w3.org/2000/svg">
<g id="Group 170">
<rect id="Rectangle 422" width="36" height="36" rx="8" fill="#0276C9" fill-opacity="0.05"/>
<g id="Frame">
<path id="Vector" d="M24.704 11.168L21.2 10C21.2 10.8487 20.8629 11.6626 20.2627 12.2627C19.6626 12.8629 18.8487 13.2 18 13.2C17.1513 13.2 16.3374 12.8629 15.7373 12.2627C15.1371 11.6626 14.8 10.8487 14.8 10L11.296 11.168C10.9339 11.2886 10.6269 11.5347 10.4303 11.8619C10.2337 12.189 10.1605 12.5757 10.224 12.952L10.688 15.728C10.7185 15.9159 10.8149 16.0868 10.9601 16.21C11.1053 16.3332 11.2896 16.4005 11.48 16.4H13.2V24.4C13.2 25.28 13.92 26 14.8 26H21.2C21.6243 26 22.0313 25.8314 22.3314 25.5314C22.6314 25.2313 22.8 24.8243 22.8 24.4V16.4H24.52C24.7104 16.4005 24.8947 16.3332 25.0399 16.21C25.1851 16.0868 25.2815 15.9159 25.312 15.728L25.776 12.952C25.8395 12.5757 25.7663 12.189 25.5697 11.8619C25.3731 11.5347 25.0661 11.2886 24.704 11.168Z" stroke="#0276C9" stroke-width="1.2" stroke-linecap="round" stroke-linejoin="round"/>
</g>
</g>
</svg>
