<svg width="36" height="36" viewBox="0 0 36 36" fill="none" xmlns="http://www.w3.org/2000/svg">
<g id="Group 170">
<g id="Group 170_2">
<rect id="Rectangle 422" width="36" height="36" rx="8" fill="#3ABAC3" fill-opacity="0.05"/>
<g id="Frame">
<path id="Vector" d="M21.2 16.3999C21.2 17.2486 20.8628 18.0625 20.2627 18.6626C19.6626 19.2628 18.8487 19.5999 18 19.5999C17.1513 19.5999 16.3374 19.2628 15.7372 18.6626C15.1371 18.0625 14.8 17.2486 14.8 16.3999" stroke="#3ABAC3" stroke-width="1.2" stroke-linecap="round" stroke-linejoin="round"/>
<path id="Vector_2" d="M10.8824 13.2273H25.1176" stroke="#3ABAC3" stroke-width="1.2" stroke-linecap="round" stroke-linejoin="round"/>
<path id="Vector_3" d="M11.12 12.7736C10.9123 13.0506 10.8 13.3874 10.8 13.7336V24.4C10.8 24.8243 10.9686 25.2313 11.2686 25.5314C11.5687 25.8314 11.9756 26 12.4 26H23.6C24.0243 26 24.4313 25.8314 24.7314 25.5314C25.0314 25.2313 25.2 24.8243 25.2 24.4V13.7336C25.2 13.3874 25.0877 13.0506 24.88 12.7736L23.28 10.64C23.131 10.4413 22.9377 10.28 22.7155 10.1689C22.4934 10.0578 22.2484 10 22 10H14C13.7516 10 13.5066 10.0578 13.2844 10.1689C13.0623 10.28 12.869 10.4413 12.72 10.64L11.12 12.7736Z" stroke="#3ABAC3" stroke-width="1.2" stroke-linecap="round" stroke-linejoin="round"/>
</g>
</g>
</g>
</svg>
