<svg width="36" height="36" viewBox="0 0 36 36" fill="none" xmlns="http://www.w3.org/2000/svg">
<g id="Group 170">
<rect id="Rectangle 422" width="36" height="36" rx="8" fill="#38B865" fill-opacity="0.05"/>
<g id="Frame">
<path id="Vector" d="M21.4474 12.0264H26.5" stroke="#38B865" stroke-width="1.26316" stroke-linecap="round" stroke-linejoin="round"/>
<path id="Vector_2" d="M23.9737 9.5V14.5526" stroke="#38B865" stroke-width="1.26316" stroke-linecap="round" stroke-linejoin="round"/>
<path id="Vector_3" d="M25.6579 17.5002V23.816C25.6579 24.2626 25.4805 24.691 25.1646 25.0069C24.8487 25.3227 24.4204 25.5002 23.9737 25.5002H12.1842C11.7375 25.5002 11.3091 25.3227 10.9933 25.0069C10.6774 24.691 10.5 24.2626 10.5 23.816V12.0265C10.5 11.5798 10.6774 11.1514 10.9933 10.8356C11.3091 10.5197 11.7375 10.3423 12.1842 10.3423H18.5" stroke="#38B865" stroke-width="1.26316" stroke-linecap="round" stroke-linejoin="round"/>
<path id="Vector_4" d="M25.6579 20.4473L23.0591 17.8486C22.7433 17.5328 22.315 17.3555 21.8684 17.3555C21.4218 17.3555 20.9935 17.5328 20.6777 17.8486L13.0263 25.5" stroke="#38B865" stroke-width="1.26316" stroke-linecap="round" stroke-linejoin="round"/>
<path id="Vector_5" d="M15.5526 17.0789C16.4828 17.0789 17.2368 16.3248 17.2368 15.3947C17.2368 14.4645 16.4828 13.7104 15.5526 13.7104C14.6225 13.7104 13.8684 14.4645 13.8684 15.3947C13.8684 16.3248 14.6225 17.0789 15.5526 17.0789Z" stroke="#38B865" stroke-width="1.26316" stroke-linecap="round" stroke-linejoin="round"/>
</g>
</g>
</svg>
