<svg width="36" height="36" viewBox="0 0 36 36" fill="none" xmlns="http://www.w3.org/2000/svg">
<g id="Group 170">
<rect id="Rectangle 422" width="36" height="36" rx="8" fill="#3F3FAA" fill-opacity="0.05"/>
<g id="Frame">
<path id="Vector" d="M21.2 11.2C21.2 10.5373 20.6627 10 20 10C19.3372 10 18.8 10.5373 18.8 11.2V15.2C18.8 15.8627 19.3372 16.4 20 16.4C20.6627 16.4 21.2 15.8627 21.2 15.2V11.2Z" stroke="#3F3FAA" stroke-width="1.2" stroke-linecap="round" stroke-linejoin="round"/>
<path id="Vector_2" d="M23.6 15.2V16.4H24.8C25.0373 16.4 25.2693 16.3296 25.4667 16.1978C25.664 16.0659 25.8178 15.8785 25.9086 15.6592C25.9995 15.4399 26.0232 15.1987 25.9769 14.9659C25.9306 14.7331 25.8163 14.5193 25.6485 14.3515C25.4807 14.1836 25.2669 14.0694 25.0341 14.0231C24.8013 13.9768 24.56 14.0005 24.3408 14.0913C24.1215 14.1822 23.9341 14.336 23.8022 14.5333C23.6704 14.7307 23.6 14.9627 23.6 15.2Z" stroke="#3F3FAA" stroke-width="1.2" stroke-linecap="round" stroke-linejoin="round"/>
<path id="Vector_3" d="M17.2 20.8001C17.2 20.1374 16.6627 19.6001 16 19.6001C15.3372 19.6001 14.8 20.1374 14.8 20.8001V24.8001C14.8 25.4628 15.3372 26.0001 16 26.0001C16.6627 26.0001 17.2 25.4628 17.2 24.8001V20.8001Z" stroke="#3F3FAA" stroke-width="1.2" stroke-linecap="round" stroke-linejoin="round"/>
<path id="Vector_4" d="M12.4 20.8001V19.6001H11.2C10.9627 19.6001 10.7307 19.6705 10.5333 19.8023C10.336 19.9342 10.1822 20.1216 10.0913 20.3409C10.0005 20.5601 9.97676 20.8014 10.0231 21.0342C10.0694 21.267 10.1836 21.4808 10.3515 21.6486C10.5193 21.8164 10.7331 21.9307 10.9659 21.977C11.1987 22.0233 11.4399 21.9996 11.6592 21.9088C11.8785 21.8179 12.0659 21.6641 12.1978 21.4668C12.3296 21.2694 12.4 21.0374 12.4 20.8001Z" stroke="#3F3FAA" stroke-width="1.2" stroke-linecap="round" stroke-linejoin="round"/>
<path id="Vector_5" d="M24.8 18.8H20.8C20.1372 18.8 19.6 19.3373 19.6 20C19.6 20.6628 20.1372 21.2 20.8 21.2H24.8C25.4627 21.2 26 20.6628 26 20C26 19.3373 25.4627 18.8 24.8 18.8Z" stroke="#3F3FAA" stroke-width="1.2" stroke-linecap="round" stroke-linejoin="round"/>
<path id="Vector_6" d="M20.8 23.6001H19.6V24.8001C19.6 25.0374 19.6704 25.2694 19.8022 25.4668C19.9341 25.6641 20.1215 25.8179 20.3408 25.9088C20.56 25.9996 20.8013 26.0233 21.0341 25.977C21.2669 25.9307 21.4807 25.8164 21.6485 25.6486C21.8163 25.4808 21.9306 25.267 21.9769 25.0342C22.0232 24.8014 21.9995 24.5601 21.9086 24.3409C21.8178 24.1216 21.664 23.9342 21.4667 23.8023C21.2693 23.6705 21.0373 23.6001 20.8 23.6001Z" stroke="#3F3FAA" stroke-width="1.2" stroke-linecap="round" stroke-linejoin="round"/>
<path id="Vector_7" d="M15.2 14.8H11.2C10.5373 14.8 10 15.3373 10 16C10 16.6628 10.5373 17.2 11.2 17.2H15.2C15.8627 17.2 16.4 16.6628 16.4 16C16.4 15.3373 15.8627 14.8 15.2 14.8Z" stroke="#3F3FAA" stroke-width="1.2" stroke-linecap="round" stroke-linejoin="round"/>
<path id="Vector_8" d="M15.2 12.4H16.4V11.2C16.4 10.9627 16.3296 10.7307 16.1978 10.5333C16.0659 10.336 15.8785 10.1822 15.6592 10.0913C15.4399 10.0005 15.1987 9.97676 14.9659 10.0231C14.7331 10.0694 14.5193 10.1836 14.3515 10.3515C14.1836 10.5193 14.0694 10.7331 14.0231 10.9659C13.9768 11.1987 14.0005 11.4399 14.0913 11.6592C14.1822 11.8785 14.336 12.0659 14.5333 12.1978C14.7307 12.3296 14.9627 12.4 15.2 12.4Z" stroke="#3F3FAA" stroke-width="1.2" stroke-linecap="round" stroke-linejoin="round"/>
</g>
</g>
</svg>
