<svg width="36" height="36" viewBox="0 0 36 36" fill="none" xmlns="http://www.w3.org/2000/svg">
<g id="Group 170">
<rect id="Rectangle 422" width="36" height="36" rx="8" fill="#38B865" fill-opacity="0.05"/>
<g id="Frame">
<path id="Vector" d="M26 19.6665V11.6665" stroke="#38B865" stroke-width="1.33333" stroke-linecap="round" stroke-linejoin="round"/>
<path id="Vector_2" d="M23.7778 22.3331C24.3671 22.3331 24.9324 22.099 25.3491 21.6822C25.7659 21.2655 26 20.7003 26 20.1109C26 19.5215 25.7659 18.9563 25.3491 18.5395C24.9324 18.1228 24.3671 17.8887 23.7778 17.8887C23.1884 17.8887 22.6232 18.1228 22.2064 18.5395C21.7897 18.9563 21.5555 19.5215 21.5555 20.1109C21.5555 20.7003 21.7897 21.2655 22.2064 21.6822C22.6232 22.099 23.1884 22.3331 23.7778 22.3331Z" stroke="#38B865" stroke-width="1.33333" stroke-linecap="round" stroke-linejoin="round"/>
<path id="Vector_3" d="M18 17H10" stroke="#38B865" stroke-width="1.33333" stroke-linecap="round" stroke-linejoin="round"/>
<path id="Vector_4" d="M21.5556 11.6665H10" stroke="#38B865" stroke-width="1.33333" stroke-linecap="round" stroke-linejoin="round"/>
<path id="Vector_5" d="M18 22.3335H10" stroke="#38B865" stroke-width="1.33333" stroke-linecap="round" stroke-linejoin="round"/>
</g>
</g>
</svg>
