<svg width="36" height="36" viewBox="0 0 36 36" fill="none" xmlns="http://www.w3.org/2000/svg">
<g id="Group 170">
<rect id="Rectangle 422" width="36" height="36" rx="8" fill="#FE7D32" fill-opacity="0.05"/>
<g id="Frame">
<path id="Vector" d="M15.4737 9.54541H11.2631C10.798 9.54541 10.421 9.92209 10.421 10.3867V19.6414C10.421 20.106 10.798 20.4827 11.2631 20.4827H15.4737C15.9387 20.4827 16.3158 20.106 16.3158 19.6414V10.3867C16.3158 9.92209 15.9387 9.54541 15.4737 9.54541Z" stroke="#FE7D32" stroke-width="1.26316" stroke-linecap="round" stroke-linejoin="round"/>
<path id="Vector_2" d="M15.4736 25.5308L17.9999 23.0068L20.5263 25.5308" stroke="#FE7D32" stroke-width="1.26316" stroke-linecap="round" stroke-linejoin="round"/>
<path id="Vector_3" d="M24.7368 9.54541H20.5263C20.0612 9.54541 19.6842 9.92209 19.6842 10.3867V19.6414C19.6842 20.106 20.0612 20.4827 20.5263 20.4827H24.7368C25.2019 20.4827 25.5789 20.106 25.5789 19.6414V10.3867C25.5789 9.92209 25.2019 9.54541 24.7368 9.54541Z" stroke="#FE7D32" stroke-width="1.26316" stroke-linecap="round" stroke-linejoin="round"/>
</g>
</g>
</svg>
