<svg width="36" height="36" viewBox="0 0 36 36" fill="none" xmlns="http://www.w3.org/2000/svg">
<g id="Group 170">
<rect id="Rectangle 422" width="36" height="36" rx="8" fill="#0276C9" fill-opacity="0.05"/>
<g id="Frame">
<path id="Vector" d="M11.6 24V12C11.6 11.4696 11.8107 10.9609 12.1858 10.5858C12.5609 10.2107 13.0696 10 13.6 10H23.6C23.8122 10 24.0157 10.0843 24.1657 10.2343C24.3157 10.3843 24.4 10.5878 24.4 10.8V25.2C24.4 25.4122 24.3157 25.6157 24.1657 25.7657C24.0157 25.9157 23.8122 26 23.6 26H13.6C13.0696 26 12.5609 25.7893 12.1858 25.4142C11.8107 25.0391 11.6 24.5304 11.6 24ZM11.6 24C11.6 23.4696 11.8107 22.9609 12.1858 22.5858C12.5609 22.2107 13.0696 22 13.6 22H24.4" stroke="#0276C9" stroke-width="1.2" stroke-linecap="round" stroke-linejoin="round"/>
<path id="Vector_2" d="M14.8 17.2H21.2" stroke="#0276C9" stroke-width="1.2" stroke-linecap="round" stroke-linejoin="round"/>
<path id="Vector_3" d="M14.8 14H19.6" stroke="#0276C9" stroke-width="1.2" stroke-linecap="round" stroke-linejoin="round"/>
</g>
</g>
</svg>
