<svg width="36" height="36" viewBox="0 0 36 36" fill="none" xmlns="http://www.w3.org/2000/svg">
<g id="Group 170">
<rect id="Rectangle 422" width="36" height="36" rx="8" fill="#FE7D32" fill-opacity="0.05"/>
<g id="Group 165">
<g id="Frame" clip-path="url(#clip0_224_4411)">
<g id="Frame_2">
<path id="Vector" d="M16.35 20.7999C16.2786 20.5231 16.1343 20.2704 15.9321 20.0682C15.7299 19.8661 15.4773 19.7218 15.2004 19.6503L10.2925 18.3848C10.2088 18.361 10.1351 18.3106 10.0826 18.2411C10.0302 18.1717 10.0018 18.087 10.0018 18C10.0018 17.9129 10.0302 17.8283 10.0826 17.7588C10.1351 17.6894 10.2088 17.639 10.2925 17.6152L15.2004 16.3488C15.4772 16.2775 15.7298 16.1333 15.9319 15.9313C16.1341 15.7293 16.2784 15.4768 16.35 15.2001L17.6156 10.2922C17.6391 10.2081 17.6895 10.1341 17.759 10.0813C17.8286 10.0286 17.9134 10 18.0007 10C18.088 10 18.1729 10.0286 18.2425 10.0813C18.312 10.1341 18.3624 10.2081 18.3859 10.2922L19.6507 15.2001C19.7221 15.4769 19.8664 15.7296 20.0686 15.9317C20.2708 16.1339 20.5234 16.2782 20.8003 16.3496L25.7081 17.6144C25.7925 17.6377 25.867 17.688 25.92 17.7577C25.973 17.8273 26.0018 17.9124 26.0018 18C26.0018 18.0875 25.973 18.1727 25.92 18.2423C25.867 18.312 25.7925 18.3623 25.7081 18.3856L20.8003 19.6503C20.5234 19.7218 20.2708 19.8661 20.0686 20.0682C19.8664 20.2704 19.7221 20.5231 19.6507 20.7999L18.3851 25.7078C18.3616 25.7919 18.3112 25.8659 18.2417 25.9187C18.1721 25.9714 18.0872 26 17.9999 26C17.9126 26 17.8278 25.9714 17.7582 25.9187C17.6887 25.8659 17.6383 25.7919 17.6148 25.7078L16.35 20.7999Z" stroke="#FE7D32" stroke-width="1.19997" stroke-linecap="round" stroke-linejoin="round"/>
<path id="Vector_2" d="M24.4002 10.8003V14.0002" stroke="#FE7D32" stroke-width="1.19997" stroke-linecap="round" stroke-linejoin="round"/>
<path id="Vector_3" d="M26.0001 12.4001H22.8002" stroke="#FE7D32" stroke-width="1.19997" stroke-linecap="round" stroke-linejoin="round"/>
<path id="Vector_4" d="M11.6005 22V23.6" stroke="#FE7D32" stroke-width="1.19997" stroke-linecap="round" stroke-linejoin="round"/>
<path id="Vector_5" d="M12.4005 22.7998H10.8005" stroke="#FE7D32" stroke-width="1.19997" stroke-linecap="round" stroke-linejoin="round"/>
</g>
</g>
</g>
</g>
<defs>
<clipPath id="clip0_224_4411">
<rect width="24" height="24" fill="white" transform="translate(6 6)"/>
</clipPath>
</defs>
</svg>
