<svg width="36" height="36" viewBox="0 0 36 36" fill="none" xmlns="http://www.w3.org/2000/svg">
<g id="Group 170">
<rect id="Rectangle 422" width="36" height="36" rx="8" fill="#4E4ED6" fill-opacity="0.05"/>
<g id="Frame">
<path id="Vector" d="M18 24.7087H26.0004" stroke="#4E4ED6" stroke-width="1.33341" stroke-linecap="round" stroke-linejoin="round"/>
<path id="Vector_2" d="M21.89 10.1631C22.2439 9.80959 22.7239 9.61096 23.2243 9.61096C23.7248 9.61096 24.2048 9.80959 24.5586 10.1631C24.9125 10.5167 25.1113 10.9962 25.1113 11.4962C25.1113 11.9962 24.9125 12.4757 24.5586 12.8293L13.8825 23.4965C13.671 23.7078 13.4096 23.8624 13.1224 23.9459L10.5694 24.6902C10.4929 24.7124 10.4118 24.7138 10.3346 24.694C10.2575 24.6743 10.187 24.6341 10.1307 24.5779C10.0743 24.5216 10.0342 24.4512 10.0144 24.3741C9.99462 24.2969 9.99596 24.2159 10.0183 24.1395L10.7632 21.5888C10.847 21.3023 11.0017 21.0414 11.213 20.8304L21.89 10.1631Z" stroke="#4E4ED6" stroke-width="1.33341" stroke-linecap="round" stroke-linejoin="round"/>
</g>
</g>
</svg>
