<svg width="36" height="36" viewBox="0 0 36 36" fill="none" xmlns="http://www.w3.org/2000/svg">
<g id="Group 170">
<path id="Rectangle 422" d="M0 8C0 3.58172 3.58172 0 8 0H28C32.4183 0 36 3.58172 36 8V28C36 32.4183 32.4183 36 28 36H8C3.58172 36 0 32.4183 0 28V8Z" fill="#D82525" fill-opacity="0.05"/>
<g id="Frame">
<path id="Vector" d="M18.8499 21.2498C18.8499 21.0244 18.7604 20.8082 18.601 20.6488C18.4416 20.4894 18.2254 20.3999 18 20.3999C17.7746 20.3999 17.5584 20.4894 17.399 20.6488C17.2396 20.8082 17.1501 21.0244 17.1501 21.2498L17.575 25.0745C17.575 25.1872 17.6198 25.2953 17.6995 25.375C17.7792 25.4547 17.8873 25.4994 18 25.4994C18.1127 25.4994 18.2208 25.4547 18.3005 25.375C18.3802 25.2953 18.425 25.1872 18.425 25.0745L18.8499 21.2498Z" fill="#D82525" stroke="#D82525" stroke-width="1.27488" stroke-linecap="round" stroke-linejoin="round"/>
<path id="Vector_2" d="M22.1221 22.5919C23.5155 21.7005 24.5823 20.3815 25.1628 18.8326C25.7433 17.2838 25.806 15.5884 25.3417 14.0009C24.8773 12.4133 23.9109 11.0191 22.5872 10.0271C21.2636 9.03519 19.6541 8.49902 18 8.49902C16.3459 8.49902 14.7364 9.03519 13.4128 10.0271C12.0891 11.0191 11.1227 12.4133 10.6583 14.0009C10.194 15.5884 10.2567 17.2838 10.8372 18.8326C11.4176 20.3815 12.4845 21.7005 13.8779 22.5919" stroke="#D82525" stroke-width="1.27488" stroke-linecap="round" stroke-linejoin="round"/>
<path id="Vector_3" d="M14.6003 18.6998C14.1268 18.0684 13.8385 17.3176 13.7676 16.5316C13.6967 15.7456 13.8461 14.9554 14.1991 14.2495C14.552 13.5436 15.0945 12.95 15.7659 12.5351C16.4372 12.1202 17.2108 11.9004 18 11.9004C18.7892 11.9004 19.5628 12.1202 20.2342 12.5351C20.9055 12.95 21.448 13.5436 21.801 14.2495C22.1539 14.9554 22.3033 15.7456 22.2325 16.5316C22.1616 17.3176 21.8732 18.0684 21.3997 18.6998" stroke="#D82525" stroke-width="1.27488" stroke-linecap="round" stroke-linejoin="round"/>
<path id="Vector_4" d="M18 16.9996C18.4694 16.9996 18.8499 16.6191 18.8499 16.1497C18.8499 15.6803 18.4694 15.2998 18 15.2998C17.5306 15.2998 17.1501 15.6803 17.1501 16.1497C17.1501 16.6191 17.5306 16.9996 18 16.9996Z" fill="#D82525" stroke="#D82525" stroke-width="1.27488" stroke-linecap="round" stroke-linejoin="round"/>
</g>
</g>
</svg>
