<svg width="36" height="36" viewBox="0 0 36 36" fill="none" xmlns="http://www.w3.org/2000/svg">
<g id="Group 170">
<path id="Rectangle 422" d="M0 8C0 3.58172 3.58172 0 8 0H28C32.4183 0 36 3.58172 36 8V28C36 32.4183 32.4183 36 28 36H8C3.58172 36 0 32.4183 0 28V8Z" fill="#38B865" fill-opacity="0.05"/>
<g id="Frame" clip-path="url(#clip0_283_6568)">
<g id="Frame_2">
<path id="Vector" d="M18 25.1V12.5" stroke="#38B865" stroke-width="1.35" stroke-linecap="round" stroke-linejoin="round"/>
<path id="Vector_2" d="M21.6 17L23.4 18.8L27 15.2" stroke="#38B865" stroke-width="1.35" stroke-linecap="round" stroke-linejoin="round"/>
<path id="Vector_3" d="M27 11.6V9.80002C27 9.56133 26.9052 9.33241 26.7364 9.16363C26.5676 8.99485 26.3387 8.90002 26.1 8.90002H21.6C20.6452 8.90002 19.7295 9.27931 19.0544 9.95444C18.3793 10.6296 18 11.5452 18 12.5C18 11.5452 17.6207 10.6296 16.9456 9.95444C16.2705 9.27931 15.3548 8.90002 14.4 8.90002H9.9C9.66131 8.90002 9.43239 8.99485 9.2636 9.16363C9.09482 9.33241 9 9.56133 9 9.80002V21.5C9 21.7387 9.09482 21.9676 9.2636 22.1364C9.43239 22.3052 9.66131 22.4 9.9 22.4H15.3C16.0161 22.4 16.7028 22.6845 17.2092 23.1908C17.7155 23.6972 18 24.3839 18 25.1C18 24.3839 18.2845 23.6972 18.7908 23.1908C19.2972 22.6845 19.9839 22.4 20.7 22.4H26.1C26.3387 22.4 26.5676 22.3052 26.7364 22.1364C26.9052 21.9676 27 21.7387 27 21.5V20.33" stroke="#38B865" stroke-width="1.35" stroke-linecap="round" stroke-linejoin="round"/>
</g>
</g>
</g>
<defs>
<clipPath id="clip0_283_6568">
<rect width="24" height="23.978" fill="white" transform="translate(6 5.42236)"/>
</clipPath>
</defs>
</svg>
