<svg width="36" height="36" viewBox="0 0 36 36" fill="none" xmlns="http://www.w3.org/2000/svg">
<g id="Group 170">
<rect id="Rectangle 422" width="36" height="36" rx="8" fill="#D82525" fill-opacity="0.05"/>
<g id="Frame">
<path id="Vector" d="M20.4 10H13.2C12.7757 10 12.3687 10.1686 12.0686 10.4686C11.7686 10.7687 11.6 11.1757 11.6 11.6V24.4C11.6 24.8243 11.7686 25.2313 12.0686 25.5314C12.3687 25.8314 12.7757 26 13.2 26H22.8C23.2244 26 23.6313 25.8314 23.9314 25.5314C24.2314 25.2313 24.4 24.8243 24.4 24.4V14L20.4 10Z" stroke="#D82525" stroke-width="1.2" stroke-linecap="round" stroke-linejoin="round"/>
<path id="Vector_2" d="M19.6 10V13.2C19.6 13.6243 19.7686 14.0313 20.0686 14.3314C20.3687 14.6314 20.7757 14.8 21.2 14.8H24.4" stroke="#D82525" stroke-width="1.2" stroke-linecap="round" stroke-linejoin="round"/>
<path id="P" d="M14.7 15.16C14.7 14.9943 14.8343 14.86 15 14.86H17.66C19.36 14.86 20.21 15.58 20.21 17.03C20.21 18.49 19.35 19.22 17.64 19.22H16.09C15.9243 19.22 15.79 19.3543 15.79 19.52V21.7C15.79 21.8657 15.6556 22 15.49 22H15C14.8343 22 14.7 21.8657 14.7 21.7V15.16ZM16.09 15.79C15.9243 15.79 15.79 15.9243 15.79 16.09V17.99C15.79 18.1557 15.9243 18.29 16.09 18.29H17.57C18.11 18.29 18.5 18.19 18.75 17.99C18.99 17.79 19.12 17.47 19.12 17.03C19.12 16.59 18.99 16.27 18.74 16.09C18.49 15.89 18.1 15.79 17.57 15.79H16.09Z" fill="#D82525"/>
</g>
</g>
</svg>
