<svg width="36" height="36" viewBox="0 0 36 36" fill="none" xmlns="http://www.w3.org/2000/svg">
<g id="Group 170">
<rect id="Rectangle 422" width="36" height="36" rx="8" fill="#FA5440" fill-opacity="0.05"/>
<g id="Frame">
<path id="Vector" d="M10 13.5556V11.7778C10 11.3063 10.1873 10.8541 10.5207 10.5207C10.8541 10.1873 11.3063 10 11.7778 10H13.5556" stroke="#FA5440" stroke-width="1.33333" stroke-linecap="round" stroke-linejoin="round"/>
<path id="Vector_2" d="M22.4445 10H24.2222C24.6937 10 25.1459 10.1873 25.4793 10.5207C25.8127 10.8541 26 11.3063 26 11.7778V13.5556" stroke="#FA5440" stroke-width="1.33333" stroke-linecap="round" stroke-linejoin="round"/>
<path id="Vector_3" d="M26 22.4443V24.2221C26 24.6936 25.8127 25.1458 25.4793 25.4792C25.1459 25.8126 24.6937 25.9999 24.2222 25.9999H22.4445" stroke="#FA5440" stroke-width="1.33333" stroke-linecap="round" stroke-linejoin="round"/>
<path id="Vector_4" d="M13.5556 25.9999H11.7778C11.3063 25.9999 10.8541 25.8126 10.5207 25.4792C10.1873 25.1458 10 24.6936 10 24.2221V22.4443" stroke="#FA5440" stroke-width="1.33333" stroke-linecap="round" stroke-linejoin="round"/>
<path id="Vector_5" d="M13.5555 14.4443H20.6667" stroke="#FA5440" stroke-width="1.33333" stroke-linecap="round" stroke-linejoin="round"/>
<path id="Vector_6" d="M13.5555 18H22.4444" stroke="#FA5440" stroke-width="1.33333" stroke-linecap="round" stroke-linejoin="round"/>
<path id="Vector_7" d="M13.5555 21.5557H18.8889" stroke="#FA5440" stroke-width="1.33333" stroke-linecap="round" stroke-linejoin="round"/>
</g>
</g>
</svg>
