<svg width="36" height="36" viewBox="0 0 36 36" fill="none" xmlns="http://www.w3.org/2000/svg">
<g id="Group 170">
<rect id="Rectangle 422" width="36" height="36" rx="8" fill="#0276C9" fill-opacity="0.05"/>
<g id="Frame">
<path id="Vector" d="M17.9934 26.4934C16.3123 26.4934 14.6689 25.9949 13.2711 25.0609C11.8732 24.1269 10.7838 22.7994 10.1404 21.2462C9.49709 19.693 9.32876 17.984 9.65674 16.3351C9.98471 14.6863 10.7943 13.1718 11.983 11.983C13.1718 10.7943 14.6863 9.98471 16.3351 9.65674C17.984 9.32876 19.693 9.49709 21.2462 10.1404C22.7994 10.7838 24.1269 11.8732 25.0609 13.2711C25.9949 14.6689 26.4934 16.3123 26.4934 17.9934C26.4934 19.1096 26.2736 20.215 25.8464 21.2462C25.4192 22.2775 24.7931 23.2145 24.0038 24.0038C23.2145 24.7931 22.2775 25.4192 21.2462 25.8464C20.215 26.2736 19.1096 26.4934 17.9934 26.4934ZM17.9934 10.4379C16.4991 10.4379 15.0383 10.881 13.7958 11.7112C12.5533 12.5414 11.5849 13.7214 11.013 15.102C10.4411 16.4826 10.2915 18.0018 10.583 19.4674C10.8746 20.9331 11.5942 22.2793 12.6508 23.336C13.7075 24.3927 15.0538 25.1123 16.5194 25.4038C17.985 25.6953 19.5042 25.5457 20.8848 24.9738C22.2654 24.402 23.4454 23.4336 24.2756 22.1911C25.1058 20.9485 25.549 19.4878 25.549 17.9934C25.549 15.9896 24.7529 14.0678 23.336 12.6508C21.9191 11.2339 19.9973 10.4379 17.9934 10.4379Z" fill="#0276C9" stroke="#0276C9" stroke-width="0.3"/>
<path id="Vector_2" d="M10.3434 14.4801H25.2939V15.4245H10.3434V14.4801ZM11.0045 21.1762H24.8973V22.1207H11.0045V21.1762Z" fill="#0276C9" stroke="#0276C9" stroke-width="0.3"/>
<path id="Vector_3" d="M17.8706 26.4932C16.35 26.4932 15.0372 24.7366 14.3195 21.771L15.2639 21.5538C15.8211 23.9527 16.8506 25.5488 17.8706 25.5488C18.8906 25.5488 19.92 23.9905 20.4961 21.5727L21.4406 21.7899C20.7134 24.6988 19.3817 26.4932 17.8706 26.4932ZM15.16 15.056L14.2156 14.8577C14.8956 11.6655 16.2556 9.75769 17.8706 9.75769C19.4856 9.75769 20.8456 11.6466 21.5161 14.8577L20.5717 15.056C20.0428 12.4494 18.9378 10.7021 17.8706 10.7021C16.8034 10.7021 15.6984 12.4494 15.16 15.056ZM16.1706 15.8871H18.2484C19.4384 15.8871 20.0428 16.3971 20.0428 17.4077C20.0428 18.4182 19.4384 18.9377 18.2295 18.9377H16.9356V20.6094H16.1706V15.8871ZM16.9356 16.5388V18.2955H18.1822C18.4747 18.3211 18.7673 18.2479 19.0134 18.0877C19.1057 18.0015 19.1774 17.8956 19.2232 17.7779C19.269 17.6602 19.2876 17.5336 19.2778 17.4077C19.2904 17.2848 19.272 17.1607 19.2241 17.0469C19.1763 16.933 19.1005 16.833 19.0039 16.756C18.7629 16.5918 18.4729 16.5151 18.1822 16.5388H16.9356Z" fill="#0276C9" stroke="#0276C9" stroke-width="0.3"/>
</g>
</g>
</svg>
