<svg width="36" height="36" viewBox="0 0 36 36" fill="none" xmlns="http://www.w3.org/2000/svg">
<g id="Group 170">
<rect id="Rectangle 422" width="36" height="36" rx="8" fill="#4E4ED6" fill-opacity="0.05"/>
<g id="Frame">
<path id="Vector" d="M25.2117 18.0041C25.6543 18.0041 26.0175 17.6441 25.9734 17.2039C25.7886 15.3631 24.9728 13.6429 23.6645 12.3348C22.3561 11.0268 20.6357 10.2114 18.7948 10.027C18.3538 9.98285 17.9946 10.3461 17.9946 10.7887V17.2031C17.9946 17.4158 18.0791 17.6197 18.2295 17.7701C18.3798 17.9205 18.5838 18.0049 18.7964 18.0049L25.2117 18.0041Z" stroke="#4E4ED6" stroke-width="1.3" stroke-linecap="round" stroke-linejoin="round"/>
<path id="Vector_2" d="M25.3801 21.1232C24.87 22.3295 24.0722 23.3925 23.0564 24.2192C22.0405 25.046 20.8377 25.6113 19.5529 25.8657C18.2681 26.1202 16.9406 26.056 15.6864 25.6789C14.4321 25.3018 13.2893 24.6232 12.358 23.7024C11.4266 22.7815 10.7349 21.6466 10.3435 20.3967C9.95208 19.1469 9.87279 17.8202 10.1126 16.5326C10.3523 15.245 10.9039 14.0357 11.7189 13.0106C12.534 11.9854 13.5878 11.1754 14.7882 10.6516" stroke="#4E4ED6" stroke-width="1.3" stroke-linecap="round" stroke-linejoin="round"/>
</g>
</g>
</svg>
