<svg width="36" height="36" viewBox="0 0 36 36" fill="none" xmlns="http://www.w3.org/2000/svg">
<g id="Group 170">
<rect id="Rectangle 422" width="36" height="36" rx="8" fill="#8447FF" fill-opacity="0.05"/>
<g id="Frame">
<path id="Vector" d="M20.7 18H16.2" stroke="#8E47F0" stroke-width="1.35" stroke-linecap="round" stroke-linejoin="round"/>
<path id="Vector_2" d="M20.7 14.4H16.2" stroke="#8E47F0" stroke-width="1.35" stroke-linecap="round" stroke-linejoin="round"/>
<path id="Vector_3" d="M24.3 22.5V11.7C24.3 11.2226 24.1103 10.7648 23.7728 10.4272C23.4352 10.0897 22.9774 9.90002 22.5 9.90002H10.8" stroke="#8E47F0" stroke-width="1.35" stroke-linecap="round" stroke-linejoin="round"/>
<path id="Vector_4" d="M14.4 26.1H25.2C25.6774 26.1 26.1352 25.9104 26.4728 25.5728C26.8104 25.2353 27 24.7774 27 24.3V23.4C27 23.1613 26.9052 22.9324 26.7364 22.7636C26.5676 22.5948 26.3387 22.5 26.1 22.5H17.1C16.8613 22.5 16.6324 22.5948 16.4636 22.7636C16.2948 22.9324 16.2 23.1613 16.2 23.4V24.3C16.2 24.7774 16.0104 25.2353 15.6728 25.5728C15.3352 25.9104 14.8774 26.1 14.4 26.1ZM14.4 26.1C13.9226 26.1 13.4648 25.9104 13.1272 25.5728C12.7896 25.2353 12.6 24.7774 12.6 24.3V11.7C12.6 11.2226 12.4104 10.7648 12.0728 10.4272C11.7352 10.0897 11.2774 9.90002 10.8 9.90002C10.3226 9.90002 9.86477 10.0897 9.52721 10.4272C9.18964 10.7648 9 11.2226 9 11.7V13.5C9 13.7387 9.09482 13.9676 9.2636 14.1364C9.43239 14.3052 9.66131 14.4 9.9 14.4H12.6" stroke="#8E47F0" stroke-width="1.35" stroke-linecap="round" stroke-linejoin="round"/>
</g>
</g>
</svg>
