<svg width="36" height="36" viewBox="0 0 36 36" fill="none" xmlns="http://www.w3.org/2000/svg">
<g id="Group 170">
<rect id="Rectangle 422" width="36" height="36" rx="8" fill="#FE7D32" fill-opacity="0.05"/>
<g id="Frame">
<path id="Vector" d="M18.8 10C20.7095 10 22.5409 10.7586 23.8912 12.1088C25.2414 13.4591 26 15.2904 26 17.2" stroke="#FE7D32" stroke-width="1.2" stroke-linecap="round" stroke-linejoin="round"/>
<path id="Vector_2" d="M18.8 13.2002C19.8609 13.2002 20.8783 13.6216 21.6284 14.3718C22.3786 15.1219 22.8 16.1393 22.8 17.2002" stroke="#FE7D32" stroke-width="1.2" stroke-linecap="round" stroke-linejoin="round"/>
<path id="Vector_3" d="M19.4656 21.6544C19.6308 21.7303 19.817 21.7476 19.9934 21.7036C20.1697 21.6595 20.3259 21.5567 20.436 21.412L20.72 21.04C20.869 20.8413 21.0623 20.68 21.2845 20.5689C21.5066 20.4578 21.7516 20.4 22 20.4H24.4C24.8243 20.4 25.2313 20.5686 25.5314 20.8686C25.8314 21.1687 26 21.5757 26 22V24.4C26 24.8243 25.8314 25.2313 25.5314 25.5314C25.2313 25.8314 24.8243 26 24.4 26C20.5809 26 16.9182 24.4829 14.2177 21.7823C11.5171 19.0818 10 15.4191 10 11.6C10 11.1757 10.1686 10.7687 10.4686 10.4686C10.7687 10.1686 11.1757 10 11.6 10H14C14.4243 10 14.8313 10.1686 15.1314 10.4686C15.4314 10.7687 15.6 11.1757 15.6 11.6V14C15.6 14.2484 15.5422 14.4934 15.4311 14.7155C15.32 14.9377 15.1587 15.131 14.96 15.28L14.5856 15.5608C14.4387 15.6729 14.3352 15.8325 14.2926 16.0123C14.25 16.1921 14.271 16.3811 14.352 16.5472C15.4453 18.7679 17.2435 20.5638 19.4656 21.6544Z" stroke="#FE7D32" stroke-width="1.2" stroke-linecap="round" stroke-linejoin="round"/>
</g>
</g>
</svg>
