<svg width="36" height="36" viewBox="0 0 36 36" fill="none" xmlns="http://www.w3.org/2000/svg">
<g id="Group 170">
<rect id="Rectangle 422" width="36" height="36" rx="8" fill="#3ABAC3" fill-opacity="0.05"/>
<g id="Frame">
<path id="Vector" d="M20.4 10H13.2C12.7757 10 12.3687 10.1686 12.0687 10.4686C11.7686 10.7687 11.6 11.1757 11.6 11.6V24.4C11.6 24.8243 11.7686 25.2313 12.0687 25.5313C12.3687 25.8314 12.7757 26 13.2 26H22.8C23.2244 26 23.6313 25.8314 23.9314 25.5313C24.2314 25.2313 24.4 24.8243 24.4 24.4V14L20.4 10Z" stroke="#3ABAC3" stroke-width="1.2" stroke-linecap="round" stroke-linejoin="round"/>
<path id="Vector_2" d="M19.6 10V13.2C19.6 13.6243 19.7685 14.0313 20.0686 14.3314C20.3687 14.6314 20.7756 14.8 21.2 14.8H24.4" stroke="#3ABAC3" stroke-width="1.2" stroke-linecap="round" stroke-linejoin="round"/>
<path id="Vector_3" d="M16.4 19.5999C17.2836 19.5999 18 18.8836 18 17.9999C18 17.1162 17.2836 16.3999 16.4 16.3999C15.5163 16.3999 14.8 17.1162 14.8 17.9999C14.8 18.8836 15.5163 19.5999 16.4 19.5999Z" stroke="#3ABAC3" stroke-width="1.2" stroke-linecap="round" stroke-linejoin="round"/>
<path id="Vector_4" d="M24.4 22.0001L23.3632 20.9633C23.0016 20.6018 22.5113 20.3987 22 20.3987C21.4887 20.3987 20.9983 20.6018 20.6368 20.9633L15.6 26.0001" stroke="#3ABAC3" stroke-width="1.2" stroke-linecap="round" stroke-linejoin="round"/>
</g>
</g>
</svg>
