<svg width="36" height="36" viewBox="0 0 36 36" fill="none" xmlns="http://www.w3.org/2000/svg">
<g id="Group 170">
<rect id="Rectangle 422" width="36" height="36" rx="8" fill="#0276C9" fill-opacity="0.05"/>
<g id="Frame">
<path id="Vector" d="M10 18.8C10.4243 18.8 10.8313 18.6314 11.1314 18.3314C11.4314 18.0313 11.6 17.6243 11.6 17.2V14C11.6 13.5757 11.7686 13.1687 12.0686 12.8686C12.3687 12.5686 12.7757 12.4 13.2 12.4C13.6243 12.4 14.0313 12.5686 14.3314 12.8686C14.6314 13.1687 14.8 13.5757 14.8 14V24.4C14.8 24.8243 14.9686 25.2313 15.2686 25.5314C15.5687 25.8314 15.9757 26 16.4 26C16.8243 26 17.2313 25.8314 17.5314 25.5314C17.8314 25.2313 18 24.8243 18 24.4V11.6C18 11.1757 18.1686 10.7687 18.4686 10.4686C18.7687 10.1686 19.1757 10 19.6 10C20.0243 10 20.4313 10.1686 20.7314 10.4686C21.0314 10.7687 21.2 11.1757 21.2 11.6V22C21.2 22.4243 21.3686 22.8313 21.6686 23.1314C21.9687 23.4314 22.3757 23.6 22.8 23.6C23.2243 23.6 23.6313 23.4314 23.9314 23.1314C24.2314 22.8313 24.4 22.4243 24.4 22V18.8C24.4 18.3757 24.5686 17.9687 24.8686 17.6686C25.1687 17.3686 25.5757 17.2 26 17.2" stroke="#0276C9" stroke-width="1.2" stroke-linecap="round" stroke-linejoin="round"/>
</g>
</g>
</svg>
