<svg width="36" height="36" viewBox="0 0 36 36" fill="none" xmlns="http://www.w3.org/2000/svg">
<g id="Group 170">
<rect id="Rectangle 422" width="36" height="36" rx="8" fill="#8E47F0" fill-opacity="0.05"/>
<g id="Frame">
<path id="Vector" d="M26 18H24.016C23.6664 17.9993 23.3261 18.113 23.0473 18.324C22.7685 18.5349 22.5664 18.8314 22.472 19.168L20.592 25.856C20.5799 25.8975 20.5546 25.934 20.52 25.96C20.4854 25.986 20.4433 26 20.4 26C20.3567 26 20.3146 25.986 20.28 25.96C20.2454 25.934 20.2201 25.8975 20.208 25.856L15.792 10.144C15.7799 10.1025 15.7546 10.066 15.72 10.04C15.6854 10.014 15.6433 10 15.6 10C15.5567 10 15.5146 10.014 15.48 10.04C15.4454 10.066 15.4201 10.1025 15.408 10.144L13.528 16.832C13.434 17.1673 13.2331 17.4628 12.9559 17.6736C12.6787 17.8844 12.3403 17.999 11.992 18H10" stroke="#8E47F0" stroke-width="1.2" stroke-linecap="round" stroke-linejoin="round"/>
</g>
</g>
</svg>
