<svg width="36" height="36" viewBox="0 0 36 36" fill="none" xmlns="http://www.w3.org/2000/svg">
<g id="Group 170">
<rect id="Rectangle 422" width="36" height="36" rx="8" fill="#EE6FDB" fill-opacity="0.05"/>
<g id="Frame">
<path id="Vector" d="M21.6 18.9001L26.3007 22.0339C26.3685 22.079 26.4472 22.1049 26.5285 22.1088C26.6098 22.1127 26.6906 22.0944 26.7624 22.056C26.8342 22.0176 26.8942 21.9604 26.936 21.8906C26.9778 21.8208 27 21.7409 27 21.6595V14.2831C27 14.204 26.9792 14.1262 26.9395 14.0576C26.8999 13.9891 26.8428 13.9323 26.7742 13.8928C26.7055 13.8534 26.6277 13.8327 26.5485 13.833C26.4693 13.8333 26.3916 13.8544 26.3232 13.8943L21.6 16.6501" stroke="#EE6FDB" stroke-width="1.35" stroke-linecap="round" stroke-linejoin="round"/>
<path id="Vector_2" d="M19.8 12.6001H10.8C9.80589 12.6001 9 13.406 9 14.4001V21.6001C9 22.5942 9.80589 23.4001 10.8 23.4001H19.8C20.7941 23.4001 21.6 22.5942 21.6 21.6001V14.4001C21.6 13.406 20.7941 12.6001 19.8 12.6001Z" stroke="#EE6FDB" stroke-width="1.35" stroke-linecap="round" stroke-linejoin="round"/>
</g>
</g>
</svg>
