<svg width="36" height="36" viewBox="0 0 36 36" fill="none" xmlns="http://www.w3.org/2000/svg">
<g id="Group 170">
<rect id="Rectangle 422" width="36" height="36" rx="8" fill="#FA5440" fill-opacity="0.05"/>
<g id="Frame">
<path id="Vector" d="M12.4 26H23.6C24.0244 26 24.4313 25.8314 24.7314 25.5314C25.0315 25.2313 25.2 24.8243 25.2 24.4V14L21.2 10H14C13.5757 10 13.1687 10.1686 12.8687 10.4686C12.5686 10.7687 12.4 11.1757 12.4 11.6V14.8" stroke="#FA5440" stroke-width="1.2" stroke-linecap="round" stroke-linejoin="round"/>
<path id="Vector_2" d="M20.4 10V13.2C20.4 13.6243 20.5686 14.0313 20.8687 14.3314C21.1687 14.6314 21.5757 14.8 22 14.8H25.2" stroke="#FA5440" stroke-width="1.2" stroke-linecap="round" stroke-linejoin="round"/>
<path id="Vector_3" d="M13.2 18L10.8 20.4L13.2 22.8" stroke="#FA5440" stroke-width="1.2" stroke-linecap="round" stroke-linejoin="round"/>
<path id="Vector_4" d="M16.4 22.8L18.8 20.4L16.4 18" stroke="#FA5440" stroke-width="1.2" stroke-linecap="round" stroke-linejoin="round"/>
</g>
</g>
</svg>
