<svg width="36" height="36" viewBox="0 0 36 36" fill="none" xmlns="http://www.w3.org/2000/svg">
<g id="Group 170">
<g id="Group 170_2">
<rect id="Rectangle 422" width="36" height="36" rx="8" fill="#0276C9" fill-opacity="0.05"/>
<g id="Frame">
<path id="Vector" d="M25.2007 14.7998C25.2004 14.5192 25.1264 14.2436 24.9859 14.0007C24.8455 13.7577 24.6437 13.556 24.4006 13.4157L18.8001 10.2154C18.5568 10.0749 18.2809 10.001 18 10.001C17.7191 10.001 17.4432 10.0749 17.1999 10.2154L11.5994 13.4157C11.3564 13.556 11.1545 13.7577 11.0141 14.0007C10.8737 14.2436 10.7996 14.5192 10.7993 14.7998V21.2004C10.7996 21.481 10.8737 21.7566 11.0141 21.9996C11.1545 22.2425 11.3564 22.4443 11.5994 22.5846L17.1999 25.7849C17.4432 25.9253 17.7191 25.9993 18 25.9993C18.2809 25.9993 18.5568 25.9253 18.8001 25.7849L24.4006 22.5846C24.6437 22.4443 24.8455 22.2425 24.9859 21.9996C25.1264 21.7566 25.2004 21.481 25.2007 21.2004V14.7998Z" stroke="#0276C9" stroke-width="1.20012" stroke-linecap="round" stroke-linejoin="round"/>
<path id="Vector_2" d="M11.0393 14L18 18.0004L24.9607 14" stroke="#0276C9" stroke-width="1.20012" stroke-linecap="round" stroke-linejoin="round"/>
<path id="Vector_3" d="M18 26.0008V18" stroke="#0276C9" stroke-width="1.20012" stroke-linecap="round" stroke-linejoin="round"/>
</g>
</g>
</g>
</svg>
