<svg width="36" height="36" viewBox="0 0 36 36" fill="none" xmlns="http://www.w3.org/2000/svg">
<g id="Group 170">
<rect id="Rectangle 422" width="36" height="36" rx="8" fill="#FA5440" fill-opacity="0.05"/>
<g id="Frame">
<path id="Vector" d="M25.1111 9.15234H10.8889C10.398 9.15234 10 9.54995 10 10.0404V14.4808C10 14.9712 10.398 15.3689 10.8889 15.3689H25.1111C25.602 15.3689 26 14.9712 26 14.4808V10.0404C26 9.54995 25.602 9.15234 25.1111 9.15234Z" stroke="#FA5440" stroke-width="1.33333" stroke-linecap="round" stroke-linejoin="round"/>
<path id="Vector_2" d="M17.1111 18.9211H10.8889C10.398 18.9211 10 19.3187 10 19.8092V24.2496C10 24.74 10.398 25.1377 10.8889 25.1377H17.1111C17.602 25.1377 18 24.74 18 24.2496V19.8092C18 19.3187 17.602 18.9211 17.1111 18.9211Z" stroke="#FA5440" stroke-width="1.33333" stroke-linecap="round" stroke-linejoin="round"/>
<path id="Vector_3" d="M25.1111 18.9211H22.4444C21.9535 18.9211 21.5555 19.3187 21.5555 19.8092V24.2496C21.5555 24.74 21.9535 25.1377 22.4444 25.1377H25.1111C25.602 25.1377 26 24.74 26 24.2496V19.8092C26 19.3187 25.602 18.9211 25.1111 18.9211Z" stroke="#FA5440" stroke-width="1.33333" stroke-linecap="round" stroke-linejoin="round"/>
</g>
</g>
</svg>
