<svg width="36" height="36" viewBox="0 0 36 36" fill="none" xmlns="http://www.w3.org/2000/svg">
<g id="Group 170">
<rect id="Rectangle 422" width="36" height="36" rx="8" fill="#8E47F0" fill-opacity="0.05"/>
<g id="Group 165">
<g id="Frame">
<path id="Vector" d="M18 26C15.8783 26 13.8434 25.1571 12.3431 23.6569C10.8429 22.1566 10 20.1217 10 18C10 15.8783 10.8429 13.8434 12.3431 12.3431C13.8434 10.8429 15.8783 10 18 10C20.1217 10 22.1566 10.7586 23.6569 12.1088C25.1571 13.4591 26 15.2904 26 17.2C26 18.2609 25.5786 19.2783 24.8284 20.0284C24.0783 20.7786 23.0609 21.2 22 21.2H20.2C19.94 21.2 19.6851 21.2724 19.464 21.4091C19.2428 21.5458 19.0641 21.7414 18.9478 21.9739C18.8315 22.2064 18.7823 22.4668 18.8057 22.7257C18.829 22.9847 18.924 23.232 19.08 23.44L19.32 23.76C19.476 23.968 19.571 24.2153 19.5943 24.4743C19.6177 24.7332 19.5685 24.9936 19.4522 25.2261C19.3359 25.4586 19.1572 25.6542 18.936 25.7909C18.7149 25.9276 18.46 26 18.2 26H18Z" stroke="#8E47F0" stroke-width="1.2" stroke-linecap="round" stroke-linejoin="round"/>
<path id="Vector_2" d="M19.2 14C19.4209 14 19.6 13.8209 19.6 13.6C19.6 13.379 19.4209 13.2 19.2 13.2C18.9791 13.2 18.8 13.379 18.8 13.6C18.8 13.8209 18.9791 14 19.2 14Z" fill="#8E47F0" stroke="#8E47F0" stroke-width="1.2" stroke-linecap="round" stroke-linejoin="round"/>
<path id="Vector_3" d="M22.4 17.1999C22.6209 17.1999 22.8 17.0208 22.8 16.7999C22.8 16.579 22.6209 16.3999 22.4 16.3999C22.1791 16.3999 22 16.579 22 16.7999C22 17.0208 22.1791 17.1999 22.4 17.1999Z" fill="#8E47F0" stroke="#8E47F0" stroke-width="1.2" stroke-linecap="round" stroke-linejoin="round"/>
<path id="Vector_4" d="M13.6 18.8C13.8209 18.8 14 18.6209 14 18.4C14 18.1791 13.8209 18 13.6 18C13.3791 18 13.2 18.1791 13.2 18.4C13.2 18.6209 13.3791 18.8 13.6 18.8Z" fill="#8E47F0" stroke="#8E47F0" stroke-width="1.2" stroke-linecap="round" stroke-linejoin="round"/>
<path id="Vector_5" d="M15.2 14.8C15.4209 14.8 15.6 14.6209 15.6 14.4C15.6 14.1791 15.4209 14 15.2 14C14.9791 14 14.8 14.1791 14.8 14.4C14.8 14.6209 14.9791 14.8 15.2 14.8Z" fill="#8E47F0" stroke="#8E47F0" stroke-width="1.2" stroke-linecap="round" stroke-linejoin="round"/>
</g>
</g>
</g>
</svg>
