<svg width="36" height="36" viewBox="0 0 36 36" fill="none" xmlns="http://www.w3.org/2000/svg">
<g id="Group 170">
<rect id="Rectangle 422" width="36" height="36" rx="8" fill="#0276C9" fill-opacity="0.05"/>
<g id="Group 165">
<g id="Frame">
<path id="Vector" d="M21.6 16.2H23.4" stroke="#0276C9" stroke-width="1.35" stroke-linecap="round" stroke-linejoin="round"/>
<path id="Vector_2" d="M21.6 19.8H23.4" stroke="#0276C9" stroke-width="1.35" stroke-linecap="round" stroke-linejoin="round"/>
<path id="Vector_3" d="M12.753 20.7C12.9385 20.1726 13.2832 19.7158 13.7394 19.3927C14.1956 19.0695 14.7409 18.896 15.3 18.896C15.8591 18.896 16.4043 19.0695 16.8606 19.3927C17.3168 19.7158 17.6615 20.1726 17.847 20.7" stroke="#0276C9" stroke-width="1.35" stroke-linecap="round" stroke-linejoin="round"/>
<path id="Vector_4" d="M15.3 18.9C16.2941 18.9 17.1 18.0942 17.1 17.1C17.1 16.1059 16.2941 15.3 15.3 15.3C14.3059 15.3 13.5 16.1059 13.5 17.1C13.5 18.0942 14.3059 18.9 15.3 18.9Z" stroke="#0276C9" stroke-width="1.35" stroke-linecap="round" stroke-linejoin="round"/>
<path id="Vector_5" d="M25.2 11.7H10.8C9.80589 11.7 9 12.5058 9 13.5V22.5C9 23.4941 9.80589 24.3 10.8 24.3H25.2C26.1941 24.3 27 23.4941 27 22.5V13.5C27 12.5058 26.1941 11.7 25.2 11.7Z" stroke="#0276C9" stroke-width="1.35" stroke-linecap="round" stroke-linejoin="round"/>
</g>
</g>
</g>
</svg>
