<svg width="36" height="36" viewBox="0 0 36 36" fill="none" xmlns="http://www.w3.org/2000/svg">
<g id="Group 170">
<rect id="Rectangle 422" width="36" height="36" rx="8" fill="#FE7D32" fill-opacity="0.05"/>
<g id="Frame">
<path id="Vector" d="M21.5555 10H26V14.4444" stroke="#FE7D32" stroke-width="1.33333" stroke-linecap="round" stroke-linejoin="round"/>
<path id="Vector_2" d="M22.4445 25.9999H24.2222C24.6937 25.9999 25.1459 25.8126 25.4793 25.4792C25.8127 25.1458 26 24.6937 26 24.2222" stroke="#FE7D32" stroke-width="1.33333" stroke-linecap="round" stroke-linejoin="round"/>
<path id="Vector_3" d="M26 18V20.6667" stroke="#FE7D32" stroke-width="1.33333" stroke-linecap="round" stroke-linejoin="round"/>
<path id="Vector_4" d="M26 10L21.5555 14.4444" stroke="#FE7D32" stroke-width="1.33333" stroke-linecap="round" stroke-linejoin="round"/>
<path id="Vector_5" d="M10 13.5556V11.7778C10 11.3063 10.1873 10.8541 10.5207 10.5207C10.8541 10.1873 11.3063 10 11.7778 10" stroke="#FE7D32" stroke-width="1.33333" stroke-linecap="round" stroke-linejoin="round"/>
<path id="Vector_6" d="M11.7778 25.9999L15.4613 22.3164C15.5612 22.2164 15.6798 22.1371 15.8104 22.0829C15.9409 22.0288 16.0809 22.001 16.2222 22.001C16.3635 22.001 16.5035 22.0288 16.634 22.0829C16.7646 22.1371 16.8832 22.2164 16.9831 22.3164L18.8889 24.2221" stroke="#FE7D32" stroke-width="1.33333" stroke-linecap="round" stroke-linejoin="round"/>
<path id="Vector_7" d="M15.3333 10H18" stroke="#FE7D32" stroke-width="1.33333" stroke-linecap="round" stroke-linejoin="round"/>
<path id="Vector_8" d="M18 17.1111H10.8889C10.398 17.1111 10 17.5091 10 18V25.1111C10 25.602 10.398 26 10.8889 26H18C18.4909 26 18.8889 25.602 18.8889 25.1111V18C18.8889 17.5091 18.4909 17.1111 18 17.1111Z" stroke="#FE7D32" stroke-width="1.33333" stroke-linecap="round" stroke-linejoin="round"/>
</g>
</g>
</svg>
