<svg width="36" height="36" viewBox="0 0 36 36" fill="none" xmlns="http://www.w3.org/2000/svg">
<g id="Group 170">
<rect id="Rectangle 422" width="36" height="36" rx="8" fill="#FE7D32" fill-opacity="0.05"/>
<g id="Frame">
<path id="Vector" d="M20.83 17.4341C20.6799 17.5842 20.5956 17.7877 20.5956 17.9999C20.5956 18.2122 20.6799 18.4157 20.83 18.5658L22.7316 20.4682C22.8817 20.6182 23.0852 20.7025 23.2974 20.7025C23.5096 20.7025 23.7132 20.6182 23.8633 20.4682L25.7657 18.5658C25.9157 18.4157 26 18.2122 26 17.9999C26 17.7877 25.9157 17.5842 25.7657 17.4341L23.8633 15.5317C23.7132 15.3817 23.5096 15.2974 23.2974 15.2974C23.0852 15.2974 22.8817 15.3817 22.7316 15.5317L20.83 17.4341Z" stroke="#FE7D32" stroke-width="1.20051" stroke-linecap="round" stroke-linejoin="round"/>
<path id="Vector_2" d="M10.2343 17.4341C10.0843 17.5842 10 17.7877 10 17.9999C10 18.2122 10.0843 18.4157 10.2343 18.5658L12.1367 20.4682C12.2868 20.6182 12.4904 20.7025 12.7026 20.7025C12.9148 20.7025 13.1183 20.6182 13.2684 20.4682L15.1708 18.5658C15.3209 18.4157 15.4052 18.2122 15.4052 17.9999C15.4052 17.7877 15.3209 17.5842 15.1708 17.4341L13.2684 15.5317C13.1183 15.3817 12.9148 15.2974 12.7026 15.2974C12.4904 15.2974 12.2868 15.3817 12.1367 15.5317L10.2343 17.4341Z" stroke="#FE7D32" stroke-width="1.20051" stroke-linecap="round" stroke-linejoin="round"/>
<path id="Vector_3" d="M15.5317 22.7315C15.4573 22.8059 15.3983 22.8941 15.358 22.9913C15.3177 23.0884 15.297 23.1926 15.297 23.2978C15.297 23.4029 15.3177 23.5071 15.358 23.6042C15.3983 23.7014 15.4573 23.7897 15.5317 23.864L17.4341 25.7656C17.5842 25.9157 17.7878 25.9999 18 25.9999C18.2122 25.9999 18.4157 25.9157 18.5658 25.7656L20.4682 23.864C20.5426 23.7897 20.6017 23.7014 20.642 23.6042C20.6822 23.5071 20.703 23.4029 20.703 23.2978C20.703 23.1926 20.6822 23.0884 20.642 22.9913C20.6017 22.8941 20.5426 22.8059 20.4682 22.7315L18.5658 20.8299C18.4157 20.6799 18.2122 20.5956 18 20.5956C17.7878 20.5956 17.5842 20.6799 17.4341 20.8299L15.5317 22.7315Z" stroke="#FE7D32" stroke-width="1.20051" stroke-linecap="round" stroke-linejoin="round"/>
<path id="Vector_4" d="M15.5317 12.1367C15.3817 12.2868 15.2974 12.4904 15.2974 12.7026C15.2974 12.9148 15.3817 13.1183 15.5317 13.2684L17.4341 15.17C17.5842 15.3201 17.7878 15.4044 18 15.4044C18.2122 15.4044 18.4157 15.3201 18.5658 15.17L20.4682 13.2684C20.6183 13.1183 20.7026 12.9148 20.7026 12.7026C20.7026 12.4904 20.6183 12.2868 20.4682 12.1367L18.5658 10.2343C18.4157 10.0843 18.2122 10 18 10C17.7878 10 17.5842 10.0843 17.4341 10.2343L15.5317 12.1367Z" stroke="#FE7D32" stroke-width="1.20051" stroke-linecap="round" stroke-linejoin="round"/>
</g>
</g>
</svg>
