<svg width="36" height="36" viewBox="0 0 36 36" fill="none" xmlns="http://www.w3.org/2000/svg">
<g id="Group 170">
<rect id="Rectangle 422" width="36" height="36" rx="8" fill="#D82525" fill-opacity="0.05"/>
<g id="Frame">
<path id="Vector" d="M23.7774 21.9647C22.5777 21.8758 21.4224 21.4315 20.4893 20.6316C18.6675 21.0316 16.9346 21.6092 15.2017 22.3201C13.8242 24.764 12.5357 26.0081 11.4248 26.0081C11.2026 26.0081 10.936 25.9637 10.7583 25.8304C10.2695 25.6082 10.0029 25.1195 10.0029 24.6307C10.0029 24.2308 10.0918 23.1199 14.313 21.2982C15.2905 19.5208 16.0459 17.699 16.668 15.7884C16.1348 14.722 14.9795 12.1004 15.7793 10.7674C16.0459 10.2786 16.5791 10.012 17.1568 10.0564C17.6011 10.0564 18.0454 10.2786 18.312 10.6341C18.8897 11.4339 18.8452 13.1224 18.0899 15.6106C18.8008 16.9437 19.7339 18.1434 20.8448 19.1653C21.7779 18.9876 22.711 18.8543 23.6441 18.8543C25.7325 18.8987 26.0435 19.8763 25.9991 20.4539C25.9991 21.9647 24.5327 21.9647 23.7774 21.9647ZM11.3359 24.7195L11.4692 24.6751C12.0913 24.4529 12.5801 24.0086 12.9356 23.431C12.269 23.6976 11.7358 24.1419 11.3359 24.7195ZM17.2456 11.3894H17.1123C17.0679 11.3894 16.979 11.3894 16.9346 11.4339C16.7569 12.1892 16.8902 12.9891 17.2012 13.7C17.4678 12.9446 17.4678 12.1448 17.2456 11.3894ZM17.5567 17.8323L17.5122 17.9212L17.4678 17.8768C17.0679 18.8987 16.6235 19.9207 16.1348 20.8983L16.2236 20.8538V20.9427C17.2012 20.5872 18.2676 20.2762 19.2451 20.054L19.2007 20.0096H19.334C18.6675 19.3431 18.0454 18.5877 17.5567 17.8323ZM23.5996 20.1873C23.1997 20.1873 22.8443 20.1873 22.4444 20.2762C22.8887 20.4983 23.333 20.5872 23.7774 20.6316C24.0884 20.6761 24.3994 20.6316 24.666 20.5428C24.666 20.4095 24.4883 20.1873 23.5996 20.1873Z" fill="#D82525"/>
</g>
</g>
</svg>
