<svg width="36" height="36" viewBox="0 0 36 36" fill="none" xmlns="http://www.w3.org/2000/svg">
<g id="Group 170">
<rect id="Rectangle 422" width="36" height="36" rx="8" fill="#0276C9" fill-opacity="0.05"/>
<g id="Group 165">
<g id="Frame">
<path id="Vector" d="M16.4 14.6001C16.4002 14.4935 16.4288 14.3889 16.4828 14.2971C16.5368 14.2052 16.6143 14.1294 16.7074 14.0774C16.8004 14.0254 16.9056 13.9992 17.0121 14.0013C17.1187 14.0035 17.2227 14.034 17.3136 14.0897L20.2448 15.8889C20.3322 15.9426 20.4043 16.0178 20.4543 16.1072C20.5044 16.1967 20.5307 16.2976 20.5307 16.4001C20.5307 16.5026 20.5044 16.6035 20.4543 16.693C20.4043 16.7824 20.3322 16.8576 20.2448 16.9113L17.3136 18.7113C17.2226 18.7671 17.1184 18.7976 17.0117 18.7997C16.9051 18.8018 16.7997 18.7754 16.7067 18.7232C16.6136 18.671 16.5361 18.595 16.4822 18.5029C16.4283 18.4108 16.3999 18.306 16.4 18.1993V14.6001Z" stroke="#0276C9" stroke-width="1.2" stroke-linecap="round" stroke-linejoin="round"/>
<path id="Vector_2" d="M14 25.2H22" stroke="#0276C9" stroke-width="1.2" stroke-linecap="round" stroke-linejoin="round"/>
<path id="Vector_3" d="M24.4 10.8H11.6C10.7163 10.8 10 11.5164 10 12.4V20.4C10 21.2837 10.7163 22 11.6 22H24.4C25.2837 22 26 21.2837 26 20.4V12.4C26 11.5164 25.2837 10.8 24.4 10.8Z" stroke="#0276C9" stroke-width="1.2" stroke-linecap="round" stroke-linejoin="round"/>
</g>
</g>
</g>
</svg>
