<svg width="36" height="36" viewBox="0 0 36 36" fill="none" xmlns="http://www.w3.org/2000/svg">
<g id="Group 170">
<rect id="Rectangle 422" width="36" height="36" rx="8" fill="#38B865" fill-opacity="0.05"/>
<g id="Source-code (&#231;&#189;&#145;&#233;&#161;&#181;&#228;&#187;&#163;&#231;&#160;&#129;)">
<path id="Vector" d="M17.6 23.7499H11.2C10.5373 23.7499 10 23.2132 10 22.551V12.1606C10 11.4984 10.5373 10.9617 11.2 10.9617H24.8C25.4628 10.9617 26 11.4984 26 12.1606V18.1081" stroke="#38B865" stroke-width="1.3" stroke-linecap="round" stroke-linejoin="round"/>
<path id="Vector_2" d="M10 12.1606C10 11.4984 10.5373 10.9617 11.2 10.9617H24.8C25.4628 10.9617 26 11.4984 26 12.1606V15.7573H10V12.1606Z" stroke="#38B865" stroke-width="1.3"/>
<path id="Vector_3" d="M22 20.9526L20.4 22.5512L22 24.1497" stroke="#38B865" stroke-width="1.3" stroke-linecap="round" stroke-linejoin="round"/>
<path id="Vector_4" d="M24.4 20.9526L26 22.5512L24.4 24.1497" stroke="#38B865" stroke-width="1.3" stroke-linecap="round" stroke-linejoin="round"/>
<path id="Vector_5" d="M11.6 13.3594C11.6 12.918 11.9581 12.5602 12.4 12.5602C12.8418 12.5602 13.2 12.918 13.2 13.3594C13.2 13.8008 12.8418 14.1587 12.4 14.1587C11.9581 14.1587 11.6 13.8008 11.6 13.3594Z" fill="#38B865"/>
<path id="Vector_6" d="M14 13.3594C14 12.918 14.3581 12.5602 14.8 12.5602C15.2418 12.5602 15.6 12.918 15.6 13.3594C15.6 13.8008 15.2418 14.1587 14.8 14.1587C14.3581 14.1587 14 13.8008 14 13.3594Z" fill="#38B865"/>
</g>
</g>
</svg>
